<?xml version="1.0" encoding="UTF-8" standalone="no"?><svg xmlns="http://www.w3.org/2000/svg" xmlns:xlink="http://www.w3.org/1999/xlink" contentStyleType="text/css" height="338px" preserveAspectRatio="none" style="width:442px;height:338px;background:#FFFFFF;" version="1.1" viewBox="0 0 442 338" width="442px" zoomAndPan="magnify"><defs/><g><!--MD5=[e5da348f9a286ac789819f64e84f1dc7]
class Entreprise--><g id="elem_Entreprise"><rect codeLine="1" fill="#F1F1F1" height="48" id="Entreprise" rx="2.5" ry="2.5" style="stroke:#181818;stroke-width:0.5;" width="108" x="7" y="86.07"/><ellipse cx="22" cy="102.07" fill="#ADD1B2" rx="11" ry="11" style="stroke:#181818;stroke-width:1.0;"/><path d="M24.3438,97.7419 C23.4063,97.3044 22.8125,97.1638 21.9375,97.1638 C19.3125,97.1638 17.3125,99.2419 17.3125,101.9606 L17.3125,103.0856 C17.3125,105.6638 19.4219,107.5544 22.3125,107.5544 C23.5313,107.5544 24.6875,107.2575 25.4375,106.7106 C26.0156,106.3044 26.3438,105.8513 26.3438,105.4606 C26.3438,105.0075 25.9531,104.6169 25.4844,104.6169 C25.2656,104.6169 25.0625,104.695 24.875,104.8825 C24.4219,105.3669 24.4219,105.3669 24.2344,105.4606 C23.8125,105.7263 23.125,105.8513 22.3594,105.8513 C20.3125,105.8513 19.0156,104.7575 19.0156,103.0544 L19.0156,101.9606 C19.0156,100.1794 20.2656,98.8669 22,98.8669 C22.5781,98.8669 23.1875,99.0231 23.6563,99.2731 C24.1406,99.5544 24.3125,99.7731 24.4063,100.1794 C24.4688,100.5856 24.5,100.7106 24.6406,100.8356 C24.7813,100.9763 25.0156,101.0856 25.2344,101.0856 C25.5,101.0856 25.7656,100.945 25.9375,100.7263 C26.0469,100.57 26.0781,100.3825 26.0781,99.9606 L26.0781,98.5388 C26.0781,98.1013 26.0625,97.9763 25.9688,97.82 C25.8125,97.5544 25.5313,97.4138 25.2344,97.4138 C24.9375,97.4138 24.7344,97.5075 24.5156,97.82 L24.3438,97.7419 Z " fill="#000000"/><text fill="#000000" font-family="sans-serif" font-size="14" lengthAdjust="spacing" textLength="76" x="36" y="106.9167">Entreprise</text><line style="stroke:#181818;stroke-width:0.5;" x1="8" x2="114" y1="118.07" y2="118.07"/><line style="stroke:#181818;stroke-width:0.5;" x1="8" x2="114" y1="126.07" y2="126.07"/></g><!--MD5=[e8de2477f0619782a88ba6174d99456f]
class Artisan--><g id="elem_Artisan"><rect codeLine="4" fill="#F1F1F1" height="80.5938" id="Artisan" rx="2.5" ry="2.5" style="stroke:#181818;stroke-width:0.5;" width="116" x="150" y="69.57"/><ellipse cx="179.85" cy="85.57" fill="#ADD1B2" rx="11" ry="11" style="stroke:#181818;stroke-width:1.0;"/><path d="M182.1938,81.2419 C181.2563,80.8044 180.6625,80.6638 179.7875,80.6638 C177.1625,80.6638 175.1625,82.7419 175.1625,85.4606 L175.1625,86.5856 C175.1625,89.1638 177.2719,91.0544 180.1625,91.0544 C181.3813,91.0544 182.5375,90.7575 183.2875,90.2106 C183.8656,89.8044 184.1938,89.3513 184.1938,88.9606 C184.1938,88.5075 183.8031,88.1169 183.3344,88.1169 C183.1156,88.1169 182.9125,88.195 182.725,88.3825 C182.2719,88.8669 182.2719,88.8669 182.0844,88.9606 C181.6625,89.2263 180.975,89.3513 180.2094,89.3513 C178.1625,89.3513 176.8656,88.2575 176.8656,86.5544 L176.8656,85.4606 C176.8656,83.6794 178.1156,82.3669 179.85,82.3669 C180.4281,82.3669 181.0375,82.5231 181.5063,82.7731 C181.9906,83.0544 182.1625,83.2731 182.2563,83.6794 C182.3188,84.0856 182.35,84.2106 182.4906,84.3356 C182.6313,84.4763 182.8656,84.5856 183.0844,84.5856 C183.35,84.5856 183.6156,84.445 183.7875,84.2263 C183.8969,84.07 183.9281,83.8825 183.9281,83.4606 L183.9281,82.0388 C183.9281,81.6013 183.9125,81.4763 183.8188,81.32 C183.6625,81.0544 183.3813,80.9138 183.0844,80.9138 C182.7875,80.9138 182.5844,81.0075 182.3656,81.32 L182.1938,81.2419 Z " fill="#000000"/><text fill="#000000" font-family="sans-serif" font-size="14" lengthAdjust="spacing" textLength="51" x="197.15" y="90.4167">Artisan</text><line style="stroke:#181818;stroke-width:0.5;" x1="151" x2="265" y1="101.57" y2="101.57"/><text fill="#000000" font-family="sans-serif" font-size="14" lengthAdjust="spacing" textLength="104" x="156" y="118.5651">salaire_horaire</text><text fill="#000000" font-family="sans-serif" font-size="14" lengthAdjust="spacing" textLength="84" x="156" y="134.862">coordonnes</text><line style="stroke:#181818;stroke-width:0.5;" x1="151" x2="265" y1="142.1638" y2="142.1638"/></g><!--MD5=[7231450f633845da6e92cf0373678125]
class Chantier--><g id="elem_Chantier"><rect codeLine="9" fill="#F1F1F1" height="96.8906" id="Chantier" rx="2.5" ry="2.5" style="stroke:#181818;stroke-width:0.5;" width="95" x="340.5" y="61.57"/><ellipse cx="355.95" cy="77.57" fill="#ADD1B2" rx="11" ry="11" style="stroke:#181818;stroke-width:1.0;"/><path d="M358.2938,73.2419 C357.3563,72.8044 356.7625,72.6638 355.8875,72.6638 C353.2625,72.6638 351.2625,74.7419 351.2625,77.4606 L351.2625,78.5856 C351.2625,81.1638 353.3719,83.0544 356.2625,83.0544 C357.4813,83.0544 358.6375,82.7575 359.3875,82.2106 C359.9656,81.8044 360.2938,81.3513 360.2938,80.9606 C360.2938,80.5075 359.9031,80.1169 359.4344,80.1169 C359.2156,80.1169 359.0125,80.195 358.825,80.3825 C358.3719,80.8669 358.3719,80.8669 358.1844,80.9606 C357.7625,81.2263 357.075,81.3513 356.3094,81.3513 C354.2625,81.3513 352.9656,80.2575 352.9656,78.5544 L352.9656,77.4606 C352.9656,75.6794 354.2156,74.3669 355.95,74.3669 C356.5281,74.3669 357.1375,74.5231 357.6063,74.7731 C358.0906,75.0544 358.2625,75.2731 358.3563,75.6794 C358.4188,76.0856 358.45,76.2106 358.5906,76.3356 C358.7313,76.4763 358.9656,76.5856 359.1844,76.5856 C359.45,76.5856 359.7156,76.445 359.8875,76.2263 C359.9969,76.07 360.0281,75.8825 360.0281,75.4606 L360.0281,74.0388 C360.0281,73.6013 360.0125,73.4763 359.9188,73.32 C359.7625,73.0544 359.4813,72.9138 359.1844,72.9138 C358.8875,72.9138 358.6844,73.0075 358.4656,73.32 L358.2938,73.2419 Z " fill="#000000"/><text fill="#000000" font-family="sans-serif" font-size="14" lengthAdjust="spacing" textLength="62" x="370.05" y="82.4167">Chantier</text><line style="stroke:#181818;stroke-width:0.5;" x1="341.5" x2="434.5" y1="93.57" y2="93.57"/><text fill="#000000" font-family="sans-serif" font-size="14" lengthAdjust="spacing" textLength="83" x="346.5" y="110.5651">date_début</text><text fill="#000000" font-family="sans-serif" font-size="14" lengthAdjust="spacing" textLength="59" x="346.5" y="126.862">date_fin</text><text fill="#000000" font-family="sans-serif" font-size="14" lengthAdjust="spacing" textLength="55" x="346.5" y="143.1589">adresse</text><line style="stroke:#181818;stroke-width:0.5;" x1="341.5" x2="434.5" y1="150.4606" y2="150.4606"/></g><!--MD5=[03bee59d8a4864223e89e9b21393ee3b]
class Travaille--><g id="elem_Travaille"><rect codeLine="15" fill="#F1F1F1" height="113.1875" id="Travaille" rx="2.5" ry="2.5" style="stroke:#181818;stroke-width:0.5;" width="185" x="210.5" y="218.57"/><ellipse cx="268.75" cy="234.57" fill="#ADD1B2" rx="11" ry="11" style="stroke:#181818;stroke-width:1.0;"/><path d="M271.0938,230.2419 C270.1563,229.8044 269.5625,229.6638 268.6875,229.6638 C266.0625,229.6638 264.0625,231.7419 264.0625,234.4606 L264.0625,235.5856 C264.0625,238.1638 266.1719,240.0544 269.0625,240.0544 C270.2813,240.0544 271.4375,239.7575 272.1875,239.2106 C272.7656,238.8044 273.0938,238.3513 273.0938,237.9606 C273.0938,237.5075 272.7031,237.1169 272.2344,237.1169 C272.0156,237.1169 271.8125,237.195 271.625,237.3825 C271.1719,237.8669 271.1719,237.8669 270.9844,237.9606 C270.5625,238.2263 269.875,238.3513 269.1094,238.3513 C267.0625,238.3513 265.7656,237.2575 265.7656,235.5544 L265.7656,234.4606 C265.7656,232.6794 267.0156,231.3669 268.75,231.3669 C269.3281,231.3669 269.9375,231.5231 270.4063,231.7731 C270.8906,232.0544 271.0625,232.2731 271.1563,232.6794 C271.2188,233.0856 271.25,233.2106 271.3906,233.3356 C271.5313,233.4763 271.7656,233.5856 271.9844,233.5856 C272.25,233.5856 272.5156,233.445 272.6875,233.2263 C272.7969,233.07 272.8281,232.8825 272.8281,232.4606 L272.8281,231.0388 C272.8281,230.6013 272.8125,230.4763 272.7188,230.32 C272.5625,230.0544 272.2813,229.9138 271.9844,229.9138 C271.6875,229.9138 271.4844,230.0075 271.2656,230.32 L271.0938,230.2419 Z " fill="#000000"/><text fill="#000000" font-family="sans-serif" font-size="14" lengthAdjust="spacing" textLength="60" x="289.25" y="239.4167">Travaille</text><line style="stroke:#181818;stroke-width:0.5;" x1="211.5" x2="394.5" y1="250.57" y2="250.57"/><text fill="#000000" font-family="sans-serif" font-size="14" lengthAdjust="spacing" textLength="106" x="216.5" y="267.5651">Nombre_heure</text><text fill="#000000" font-family="sans-serif" font-size="14" lengthAdjust="spacing" textLength="106" x="216.5" y="283.862">Debut_mission</text><text fill="#000000" font-family="sans-serif" font-size="14" lengthAdjust="spacing" textLength="82" x="216.5" y="300.1589">Fin_mission</text><line style="stroke:#181818;stroke-width:0.5;" x1="211.5" x2="394.5" y1="307.4606" y2="307.4606"/><text fill="#000000" font-family="sans-serif" font-size="14" lengthAdjust="spacing" textLength="173" x="216.5" y="324.4557">double getPayeArtisan()</text></g><ellipse cx="303" cy="110.07" fill="#000000" rx="2" ry="2" style="stroke:none;stroke-width:1.0;"/><!--MD5=[73a869ac549d56a3a03d5079437b2a26]
link Entreprise to Artisan--><g id="link_Entreprise_Artisan"><path codeLine="22" d="M115.264,110.07 C126.735,110.07 138.206,110.07 149.678,110.07 " fill="none" id="Entreprise-Artisan" style="stroke:#181818;stroke-width:1.0;"/><text fill="#000000" font-family="sans-serif" font-size="13" lengthAdjust="spacing" textLength="24" x="118.0161" y="105.7338">0..n</text></g><!--MD5=[c2de7d0ee42670d9ff0a26fc84907427]
link Entreprise to Chantier--><g id="link_Entreprise_Chantier"><path codeLine="23" d="M80.0616,85.698 C96.4318,66.899 121.872,42.346 150.5,31.57 C214.973,7.302 241.532,6 305.5,31.57 C321.655,38.028 336.452,49.322 348.916,61.364 " fill="none" id="Entreprise-Chantier" style="stroke:#181818;stroke-width:1.0;"/><text fill="#000000" font-family="sans-serif" font-size="13" lengthAdjust="spacing" textLength="24" x="57.7829" y="75.0123">0..n</text></g><!--MD5=[89be636e51d959cffa55caabcaba75a5]
link Artisan to apoint177335--><g id="link_Artisan_apoint177335"><path d="M266.262,110.07 C277.838,110.07 289.414,110.07 300.991,110.07 " fill="none" id="Artisan-apoint177335" style="stroke:#181818;stroke-width:1.0;"/><text fill="#000000" font-family="sans-serif" font-size="13" lengthAdjust="spacing" textLength="24" x="268.9376" y="103.9301">0..n</text></g><!--MD5=[438eef5e2a0fc1876ecaa04f026c82e3]
link apoint177335 to Chantier--><g id="link_apoint177335_Chantier"><path d="M305.324,110.07 C316.951,110.07 328.577,110.07 340.203,110.07 " fill="none" id="apoint177335-Chantier" style="stroke:#181818;stroke-width:1.0;"/><text fill="#000000" font-family="sans-serif" font-size="13" lengthAdjust="spacing" textLength="24" x="313.0365" y="104.0443">1..n</text></g><!--MD5=[eac9b57d5eb2d6586de3f50dcb794596]
link apoint177335 to Travaille--><g id="link_apoint177335_Travaille"><path d="M303,112.111 C303,120.272 303,174.813 303,218.381 " fill="none" id="apoint177335-Travaille" style="stroke:#181818;stroke-width:1.0;stroke-dasharray:7.0,7.0;"/></g><!--MD5=[617326deb9c09e96b59fb09430cf5e1b]
@startuml
class Entreprise {
}

class Artisan {
    salaire_horaire
    coordonnes
}

class Chantier {
    date_début
    date_fin
    adresse
}

class Travaille {
    Nombre_heure
    Debut_mission
    Fin_mission
    double getPayeArtisan()
}

Entreprise "0..n" - Artisan
Entreprise "0..n" - Chantier
Artisan "0..n" - "1..n" Chantier 
(Artisan, Chantier) .. Travaille
@enduml

PlantUML version 1.2022.3beta2(Unknown compile time)
(GPL source distribution)
Java Runtime: Java(TM) SE Runtime Environment
JVM: Java HotSpot(TM) 64-Bit Server VM
Default Encoding: UTF-8
Language: en
Country: US
--></g></svg>